<svg width="194" height="39" viewBox="0 0 194 39" fill="none" xmlns="http://www.w3.org/2000/svg">
<g clip-path="url(#clip0_49_337)">
<path d="M10.811 9.10401C10.7704 9.04974 10.7298 8.99547 10.6779 8.9251C10.6615 8.90009 10.6537 8.8963 10.6432 8.89765C10.6233 8.86986 10.6034 8.84207 10.5675 8.79504C10.3881 8.59088 10.2248 8.40596 10.0616 8.22104C10.0616 8.22104 10.0487 8.22112 10.0519 8.20719C9.88851 7.99129 9.72381 7.78781 9.55358 7.5886C9.52047 7.54986 9.46666 7.50351 9.42111 7.50224C9.24586 7.49734 9.06922 7.47265 8.89801 7.55068C7.89235 8.00903 6.96482 8.57685 6.14168 9.29717C4.79573 10.4749 3.8241 11.8842 3.24109 13.5341C3.06914 14.0207 2.91392 14.5124 2.84601 15.0245C2.84097 15.0425 2.83591 15.0604 2.82437 15.1027C2.81503 15.1607 2.81218 15.1943 2.80934 15.2279C2.80201 15.2582 2.79469 15.2885 2.78003 15.3471C2.76715 15.4481 2.76161 15.5208 2.75606 15.5935C2.75193 15.6116 2.74779 15.6295 2.73728 15.6748C2.71457 15.8556 2.69825 16.0093 2.68193 16.1629C2.67889 16.652 2.67584 17.1413 2.67394 17.6629C2.68498 17.7532 2.69486 17.8113 2.70476 17.8692C2.70813 17.9267 2.71151 17.9842 2.71768 18.0694C2.72996 18.1294 2.73943 18.1617 2.74889 18.1941C2.75338 18.2518 2.75786 18.3094 2.76538 18.3926C2.77597 18.4383 2.78351 18.4586 2.79106 18.4789C2.79397 18.5232 2.79688 18.5675 2.80261 18.6372C2.81401 18.683 2.8226 18.7033 2.83119 18.7237C2.84585 18.8219 2.86051 18.9201 2.87918 19.0463C2.89574 19.106 2.9083 19.1377 2.92085 19.1694C3.007 19.4889 3.07089 19.8157 3.18473 20.1259C3.34106 20.552 3.53523 20.9655 3.72322 21.4088C3.75775 21.47 3.78227 21.5068 3.80679 21.5436C3.82527 21.5872 3.84375 21.6308 3.86984 21.6925C3.88099 21.7205 3.88832 21.7262 3.89942 21.7274C3.89942 21.7274 3.89832 21.7306 3.90102 21.7439C3.92906 21.7924 3.95441 21.8277 3.97977 21.8629C4.2244 22.2349 4.46905 22.6069 4.72398 22.9938C4.73427 23.0088 4.74229 23.0169 4.74229 23.0169L4.75399 23.0164C4.75399 23.0164 4.75508 23.0261 4.76325 23.0405C4.84901 23.1457 4.9266 23.2364 5.0042 23.327C5.04011 23.3746 5.07603 23.4222 5.12711 23.4887C5.38251 23.7553 5.61807 24.0072 5.86487 24.2486C5.9972 24.3781 6.14887 24.4897 6.29182 24.6094C6.30213 24.6219 6.31245 24.6344 6.33928 24.6626C6.39024 24.6994 6.4247 24.7205 6.45914 24.7416C6.46847 24.7523 6.47779 24.7631 6.50398 24.7889C6.72884 24.9525 6.93684 25.101 7.14483 25.2495C7.21415 25.2971 7.28347 25.3447 7.37326 25.4066C7.42384 25.4384 7.45398 25.456 7.48411 25.4735C7.56518 25.5712 7.49611 25.6698 7.47926 25.7921C7.47214 25.8376 7.47136 25.8589 7.47058 25.8803C7.43314 26.0456 7.39569 26.2109 7.35203 26.4012C7.34509 26.4476 7.34434 26.4688 7.3436 26.4901C7.29077 26.7228 7.23794 26.9554 7.17829 27.2132C7.169 27.26 7.16653 27.2817 7.16406 27.3032C7.15802 27.3211 7.15196 27.339 7.13911 27.3794C7.13022 27.4232 7.12814 27.4447 7.12605 27.466C7.10244 27.5629 7.07882 27.6598 7.04632 27.7852C7.02113 27.8824 7.01309 27.9542 6.985 28.0182C6.97092 28.0502 6.9203 28.0677 6.8862 28.0919C6.81111 28.0465 6.73602 28.0011 6.63814 27.9427C6.56549 27.9057 6.51563 27.8816 6.46577 27.8576C6.3963 27.8119 6.32681 27.7661 6.23643 27.7061C6.12669 27.6425 6.03787 27.5932 5.94904 27.5438C5.91583 27.5189 5.8826 27.4939 5.82997 27.4548C5.77153 27.4201 5.73248 27.3997 5.69345 27.3793C5.60354 27.3149 5.51363 27.2505 5.40333 27.1705C5.30039 27.0966 5.21785 27.0385 5.1353 26.9803C5.12 26.9652 5.10471 26.9502 5.07218 26.9214C5.02531 26.8899 4.99567 26.8723 4.96603 26.8546C4.93938 26.8307 4.91273 26.8068 4.87291 26.771C4.85367 26.7512 4.84593 26.7492 4.83648 26.7532C4.83648 26.7532 4.8278 26.7394 4.82207 26.7326C4.81634 26.7259 4.80528 26.7276 4.80528 26.7276C4.7322 26.6656 4.6591 26.6037 4.57325 26.5297C4.56049 26.5178 4.54469 26.5172 4.54469 26.5172C4.16963 26.1589 3.79458 25.8005 3.4105 25.4316C3.40149 25.4209 3.39109 25.4201 3.39109 25.4201C3.3286 25.3464 3.26611 25.2727 3.18719 25.1797C3.13241 25.1253 3.09404 25.09 3.05567 25.0548C3.05567 25.0548 3.04987 25.0666 3.05036 25.0479C2.99484 24.9706 2.93885 24.912 2.88286 24.8535C2.88286 24.8535 2.87823 24.8626 2.87896 24.8458C2.85014 24.7976 2.82059 24.7661 2.79102 24.7346C2.75697 24.6858 2.72291 24.6371 2.6742 24.5692C2.61854 24.5037 2.57753 24.4572 2.53652 24.4108C2.53652 24.4108 2.53422 24.416 2.53346 24.4003C2.48071 24.3229 2.42872 24.2612 2.37673 24.1995C2.37673 24.1995 2.36757 24.1973 2.3696 24.1847C2.32406 24.1087 2.27646 24.0455 2.22887 23.9822C2.16907 23.8872 2.10928 23.7921 2.03593 23.6776C2.00704 23.6401 1.99168 23.6222 1.97632 23.6042C1.97632 23.6042 1.97716 23.6028 1.97401 23.5889C1.88717 23.4487 1.80346 23.3226 1.71975 23.1963C1.71105 23.1745 1.70235 23.1526 1.6829 23.1095C1.63287 23.026 1.59359 22.9636 1.55433 22.9013C1.54782 22.8818 1.54132 22.8623 1.5277 22.8281C1.52058 22.8133 1.50522 22.8051 1.50522 22.8051C1.50039 22.7904 1.49555 22.7758 1.47944 22.7417C1.45337 22.7026 1.43856 22.6829 1.42374 22.6632C1.34264 22.4962 1.26154 22.3291 1.17106 22.1374C1.13576 22.0669 1.10984 22.0211 1.08393 21.9753C1.06119 21.9143 1.03845 21.8533 1.00536 21.7676C0.954264 21.6531 0.913517 21.5632 0.87277 21.4734C0.87277 21.4734 0.873812 21.4588 0.869761 21.4403C0.850964 21.3923 0.836214 21.3627 0.821463 21.3332C0.821033 21.325 0.820603 21.3166 0.814923 21.2838C0.782937 21.2006 0.756198 21.1421 0.729459 21.0836C0.688131 20.9569 0.6468 20.8303 0.599488 20.6789C0.582832 20.6348 0.57216 20.6154 0.561487 20.596C0.52753 20.4684 0.493575 20.3407 0.451515 20.1859C0.42747 20.1142 0.41153 20.0697 0.395589 20.0251C0.377224 19.9368 0.358859 19.8483 0.336675 19.7367C0.325222 19.6977 0.317586 19.6817 0.309951 19.6657C0.306802 19.6329 0.303654 19.6 0.296424 19.5418C0.282793 19.4968 0.273243 19.477 0.263693 19.4573C0.262421 19.4383 0.261148 19.4194 0.256105 19.3769C0.243036 19.3334 0.233736 19.3134 0.224436 19.2935C0.220135 19.2491 0.215835 19.2048 0.207734 19.1355C0.195453 19.0906 0.186972 19.0705 0.17849 19.0506C0.166063 18.9524 0.153635 18.8541 0.138629 18.7244C0.127963 18.6624 0.119878 18.632 0.116225 18.5913C0.11284 18.561 0.10502 18.5409 0.099357 18.5044C0.0943353 18.4447 0.0871599 18.4015 0.083505 18.3434C0.0754956 18.2708 0.0639656 18.2133 0.0524343 18.1556C0.0484433 18.0714 0.0444523 17.9874 0.038942 17.8717C0.0279905 17.7693 0.0185595 17.6983 0.00912864 17.6273C0.00756247 17.3279 0.00599759 17.0284 0.00543601 16.6938C0.00429199 16.6015 0.00214601 16.5442 0 16.4869C0.00541386 16.3903 0.0108277 16.2937 0.0212854 16.1663C0.0274081 16.0629 0.028487 15.9905 0.0295671 15.918C0.0392104 15.835 0.0488537 15.752 0.0641245 15.64C0.0700115 15.5666 0.0702694 15.5222 0.0779779 15.4614C0.0891 15.3858 0.0927718 15.3265 0.10367 15.2586C0.109089 15.229 0.107282 15.2081 0.114128 15.1733C0.124778 15.1275 0.126776 15.0957 0.128773 15.0639C0.133536 15.045 0.138297 15.0261 0.146525 14.9905C0.149989 14.9737 0.152936 14.9631 0.152936 14.9631L0.142803 14.9581C0.155881 14.8972 0.168959 14.8363 0.187989 14.7482C0.193323 14.6998 0.192706 14.6786 0.192087 14.6575C0.207992 14.5891 0.223896 14.5208 0.249244 14.4221C0.270231 14.3198 0.281779 14.2479 0.293326 14.1759C0.293326 14.1759 0.29519 14.1647 0.301381 14.1541C0.313287 14.1116 0.319003 14.0797 0.324719 14.0478C0.348145 13.9635 0.371568 13.8792 0.40222 13.7707C0.411704 13.7246 0.413959 13.703 0.424111 13.669C0.436255 13.6283 0.440504 13.5999 0.444753 13.5715C0.458139 13.5367 0.471526 13.5019 0.494012 13.4415C0.533897 13.3197 0.563307 13.2228 0.595728 13.1269C0.679906 12.878 0.76541 12.6294 0.850384 12.3806C0.870228 12.3364 0.890072 12.2922 0.921283 12.2241C1.06953 11.8955 1.20641 11.5909 1.34329 11.2863C1.37027 11.2406 1.39723 11.1948 1.43704 11.128C1.47075 11.0586 1.49159 11.0104 1.51243 10.9621C1.51243 10.9621 1.51127 10.9581 1.52331 10.9527C1.82495 10.4937 2.10922 10.0371 2.40645 9.58834C2.54896 9.37315 2.71598 9.17269 2.8719 8.96557C2.8719 8.96557 2.8737 8.96595 2.88595 8.95915C3.39082 8.37708 3.91237 7.82797 4.50359 7.34184C4.70119 7.17938 4.89867 7.01678 5.09621 6.85424C5.09621 6.85424 5.09361 6.85223 5.1091 6.85047C5.17594 6.81254 5.22775 6.77694 5.27858 6.7401C6.00476 6.21392 6.77936 5.76281 7.59928 5.38186C8.88169 4.78602 10.2367 4.42566 11.6459 4.23014C12.9444 4.05 14.2404 4.06809 15.5321 4.26249C16.6589 4.43206 17.7492 4.73288 18.7962 5.17031C20.5386 5.89818 22.0639 6.91474 23.3463 8.25688C23.5229 8.44173 23.6997 8.62648 23.8763 8.81128C23.9234 8.87336 23.9705 8.93544 24.0337 9.01754C24.2061 9.23089 24.3625 9.42423 24.519 9.61757C24.519 9.61757 24.5203 9.61659 24.5222 9.63026C24.5636 9.69394 24.603 9.74396 24.6423 9.79398C24.6515 9.81302 24.6605 9.83205 24.6821 9.86972C24.749 9.96184 24.8034 10.0353 24.8578 10.1089C24.8578 10.1089 24.8601 10.1042 24.8601 10.119C24.8947 10.182 24.9293 10.2303 24.9639 10.2785C24.9891 10.3251 25.0144 10.3716 25.0538 10.4409C25.2681 10.8189 25.4681 11.174 25.6681 11.5292C25.6933 11.5891 25.7183 11.6492 25.753 11.7331C25.7882 11.8029 25.8139 11.8487 25.8395 11.8945C25.8574 11.9437 25.8752 11.993 25.9042 12.0669C25.9475 12.1613 25.9797 12.231 26.012 12.3007C26.0367 12.3738 26.0615 12.4471 26.095 12.5461C26.1294 12.6308 26.1551 12.6899 26.1806 12.749C26.1933 12.7944 26.2061 12.8399 26.226 12.9129C26.2739 13.0522 26.3146 13.1642 26.3552 13.2761C26.3801 13.3755 26.4051 13.475 26.4368 13.6008C26.4573 13.6591 26.4709 13.691 26.4844 13.7229C26.5217 13.8899 26.559 14.0569 26.6027 14.253C26.6247 14.3395 26.6403 14.397 26.656 14.4545C26.6749 14.5797 26.6938 14.7049 26.7163 14.8557C26.7278 14.9013 26.7356 14.9216 26.7433 14.9417C26.747 14.9992 26.7506 15.0566 26.7571 15.1454C26.7827 15.3018 26.8052 15.4268 26.8277 15.5519C26.8274 15.5704 26.827 15.5888 26.8283 15.6378C26.8437 15.7785 26.8574 15.8887 26.8709 15.9989C26.8718 16.0557 26.8727 16.1126 26.8737 16.2048C26.8814 16.6072 26.8887 16.9744 26.8961 17.3417C26.8859 17.4785 26.8758 17.6153 26.8602 17.7846C26.8487 17.9159 26.8427 18.0151 26.8368 18.1142C26.8321 18.1448 26.8274 18.1753 26.8164 18.2342C26.795 18.3895 26.7797 18.5165 26.7645 18.6435C26.7554 18.6996 26.7463 18.7557 26.7317 18.8375C26.7258 18.8847 26.7254 18.9062 26.7251 18.9278C26.7154 18.9708 26.7057 19.0137 26.6883 19.086C26.6511 19.27 26.6215 19.4245 26.5921 19.5791C26.5839 19.6089 26.5758 19.6387 26.5596 19.6962C26.4878 19.9593 26.4286 20.1959 26.3597 20.43C25.9022 21.9857 25.1365 23.3936 24.1108 24.6766C23.9695 24.8532 23.831 25.0318 23.6912 25.2096C23.6912 25.2096 23.6924 25.2128 23.6777 25.2171C23.3667 25.5168 23.0698 25.8122 22.7742 26.1086C22.7362 26.1468 22.7047 26.1907 22.6702 26.2321C22.6702 26.2321 22.6801 26.2377 22.6614 26.238C22.5395 26.3329 22.4363 26.4275 22.3332 26.5221C22.3332 26.5221 22.3403 26.527 22.3236 26.5271C21.564 27.1155 20.7948 27.6668 19.918 28.1003C19.8821 27.9808 19.8534 27.8854 19.8248 27.7899C19.812 27.7185 19.7994 27.6471 19.7825 27.5449C19.7494 27.4034 19.7204 27.2926 19.6915 27.1817C19.6896 27.1505 19.6877 27.1192 19.6821 27.0628C19.6688 27.0177 19.6594 26.9979 19.65 26.978C19.6475 26.9468 19.6449 26.9155 19.6382 26.8595C19.6251 26.8146 19.6162 26.7947 19.6073 26.7747C19.6069 26.7563 19.6066 26.7379 19.6032 26.6903C19.5592 26.4959 19.5183 26.3308 19.4775 26.1657C19.4737 26.1313 19.4701 26.097 19.4613 26.042C19.4553 26.0115 19.4498 26.005 19.44 26.0016C19.4392 25.9833 19.4385 25.965 19.4352 25.9178C19.4203 25.823 19.4158 25.7544 19.3934 25.6917C19.3532 25.5789 19.382 25.5021 19.4893 25.4376C19.6082 25.3663 19.7226 25.2863 19.8315 25.2016C20.0926 24.9984 20.3493 24.7903 20.6079 24.5843C20.6079 24.5843 20.6259 24.5782 20.6394 24.5702C20.6634 24.5566 20.6679 24.5481 20.6664 24.5367C20.6945 24.5171 20.7228 24.4975 20.7703 24.4624C20.8537 24.3832 20.9178 24.3193 20.9821 24.2555C20.9964 24.254 21.0075 24.2474 21.0318 24.2214C21.2296 24.0276 21.4209 23.8563 21.59 23.667C21.795 23.4374 21.9813 23.1927 22.1757 22.9546C22.1757 22.9546 22.1727 22.9519 22.1864 22.9473C22.415 22.6193 22.6299 22.2962 22.8449 21.9729C22.8449 21.9729 22.8534 21.9682 22.8578 21.964C22.8624 21.9599 22.8596 21.9477 22.8596 21.9477C22.8787 21.9183 22.8979 21.8887 22.9327 21.8347C22.9737 21.7572 22.999 21.7041 23.0244 21.6509C23.0244 21.6509 23.0339 21.6419 23.0452 21.626C23.1029 21.5142 23.1495 21.4182 23.2032 21.3179C23.219 21.3044 23.2206 21.2944 23.2151 21.2832C23.2385 21.24 23.2619 21.1968 23.2968 21.1322C23.3124 21.0965 23.3166 21.0821 23.3273 21.0655C23.3414 21.0548 23.3407 21.0471 23.3315 21.0403C23.3714 20.956 23.4113 20.8717 23.4631 20.7627C23.5517 20.5275 23.6282 20.317 23.7048 20.1065C23.71 20.0932 23.7153 20.0798 23.7302 20.0447C23.7795 19.8877 23.8193 19.7524 23.859 19.6171C23.8659 19.5997 23.8728 19.5823 23.8885 19.5398C23.9123 19.4403 23.9274 19.366 23.9425 19.2918C23.9491 19.274 23.9557 19.2562 23.9701 19.2125C23.9937 19.0996 24.0094 19.0126 24.0252 18.9255C24.0322 18.9078 24.0391 18.89 24.0537 18.848C24.0628 18.7901 24.0641 18.7563 24.0655 18.7226C24.0737 18.6921 24.0818 18.6616 24.0971 18.6034C24.1088 18.5163 24.1136 18.4569 24.1182 18.3976C24.123 18.3793 24.1278 18.3611 24.1397 18.3169C24.1504 18.2316 24.1541 18.1723 24.1577 18.1129C24.1647 18.0695 24.1718 18.0261 24.1853 17.9536C24.1957 17.8519 24.1995 17.7791 24.2032 17.7065C24.2086 17.6756 24.214 17.6447 24.2256 17.5846C24.2363 17.3062 24.2441 17.057 24.2433 16.8079C24.243 16.7018 24.2249 16.5959 24.2148 16.4898C24.2145 16.4326 24.2142 16.3753 24.2134 16.2849C24.1993 16.1548 24.186 16.0579 24.1726 15.9611C24.1712 15.9169 24.1698 15.8727 24.1664 15.7993C24.1538 15.7251 24.1432 15.6799 24.1326 15.6349C24.1295 15.5777 24.1264 15.5204 24.121 15.4352C24.1085 15.3749 24.0981 15.3426 24.0878 15.3103C24.0862 15.2772 24.0846 15.244 24.0802 15.1845C24.0677 15.1292 24.0578 15.1005 24.048 15.0717C24.0478 15.0583 24.0477 15.0448 24.042 15.0063C24.016 14.8999 23.9954 14.8185 23.9748 14.7371C23.9489 14.6077 23.9228 14.4784 23.8928 14.3317C23.8891 14.3145 23.877 14.3045 23.877 14.3045C23.8747 14.2834 23.8726 14.2623 23.866 14.2157C23.8507 14.1708 23.8398 14.1514 23.8289 14.132C23.8252 14.1099 23.8216 14.0878 23.8129 14.0477C23.807 14.0207 23.8018 14.016 23.7923 14.0157C23.7705 13.9399 23.7488 13.864 23.7194 13.7603C23.6686 13.6206 23.6254 13.5088 23.5822 13.3972C23.5632 13.3351 23.5443 13.273 23.5145 13.1877C23.4826 13.1173 23.4614 13.0701 23.4402 13.023C23.4402 13.023 23.438 13.0054 23.4292 12.985C23.405 12.9392 23.3897 12.9139 23.3744 12.8885C23.3744 12.8885 23.3783 12.8775 23.3737 12.8581C23.2907 12.6732 23.2196 12.5044 23.1326 12.3434C23.0199 12.1351 22.8946 11.9332 22.7747 11.7286C22.7492 11.6817 22.7236 11.6348 22.6857 11.5645C22.4504 11.236 22.2275 10.9309 22.0046 10.6259C22.0052 10.6136 22.001 10.6031 21.9787 10.5769C21.5512 10.0535 21.09 9.58963 20.5818 9.16908C20.4229 9.03763 20.2504 8.92119 20.0842 8.79788C20.0842 8.79788 20.0799 8.80149 20.0764 8.78793C20.0362 8.74248 20.0023 8.70689 19.9623 8.67921C19.3223 8.23631 18.6504 7.84261 17.9238 7.54366C17.7778 7.48362 17.5908 7.51014 17.4225 7.5068C17.3912 7.50619 17.3536 7.54962 17.328 7.57974C17.1088 7.83743 16.8901 8.09555 16.6742 8.35579C16.1896 8.94 15.706 9.52489 15.2241 10.1111C15.1532 10.1974 15.0786 10.2351 14.9546 10.2313C14.6569 10.2221 14.3584 10.237 14.0419 10.2371C13.9359 10.2356 13.8482 10.2391 13.7448 10.2381C13.6974 10.2366 13.6654 10.2396 13.6142 10.2374C13.3652 10.2356 13.1355 10.2389 12.8864 10.2376C12.5546 10.2335 12.2422 10.2313 11.9297 10.2358C11.8215 10.2373 11.7384 10.2079 11.6721 10.1241C11.5824 10.0108 11.4863 9.90232 11.393 9.79174C11.2065 9.5708 11.0201 9.34984 10.8335 9.12242C10.8289 9.10697 10.8214 9.10299 10.811 9.10401Z" fill="#007AFF"/>
<path d="M18.119 25.8784C18.1508 26.0444 18.1825 26.2103 18.2183 26.4037C18.2323 26.4632 18.2423 26.4953 18.2522 26.5274C18.2677 26.6131 18.2832 26.6986 18.3028 26.8093C18.3161 26.8543 18.325 26.8744 18.334 26.8944C18.3415 26.944 18.349 26.9936 18.3603 27.0595C18.3642 27.0758 18.3748 27.0852 18.3748 27.0852C18.3784 27.1197 18.382 27.1543 18.3897 27.2148C18.4022 27.2608 18.4107 27.281 18.4192 27.3011C18.4224 27.3326 18.4255 27.3641 18.4327 27.4197C18.4453 27.4641 18.4538 27.4842 18.4622 27.5043C18.4691 27.5533 18.476 27.6023 18.4867 27.6691C18.4904 27.6869 18.5025 27.6974 18.5025 27.6974C18.5046 27.7195 18.5065 27.7417 18.5122 27.7911C18.527 27.849 18.5381 27.8797 18.5492 27.9104C18.5558 27.9597 18.5622 28.0088 18.5723 28.0757C18.5757 28.0932 18.5878 28.1035 18.5878 28.1035C18.5892 28.1243 18.5906 28.1452 18.5955 28.1935C18.6109 28.253 18.6224 28.2851 18.634 28.3174C18.6412 28.367 18.6485 28.4167 18.6596 28.4824C18.6635 28.4984 18.6738 28.5077 18.6738 28.5077C18.6934 28.6104 18.713 28.7131 18.7376 28.8449C18.7627 28.946 18.7829 29.018 18.803 29.0901C18.8059 29.1214 18.8088 29.1527 18.8154 29.2085C18.8275 29.2533 18.8361 29.2735 18.8447 29.2937C18.8692 29.4198 18.8938 29.5459 18.9229 29.7026C18.9512 29.8323 18.975 29.9315 18.9987 30.0307C19.0281 30.1992 19.0573 30.3677 19.0864 30.557C19.086 30.5777 19.0906 30.5859 19.0906 30.5859C19.0832 30.5937 19.076 30.6014 19.0494 30.6278C18.9947 30.6829 18.9593 30.7195 18.9239 30.7562C18.9239 30.7562 18.9266 30.7582 18.9123 30.7618C18.7921 30.8707 18.6863 30.9761 18.5804 31.0815C18.566 31.0823 18.5546 31.0884 18.5299 31.1127C18.479 31.165 18.4444 31.204 18.41 31.2431C18.41 31.2431 18.4135 31.2461 18.3995 31.2488C18.337 31.303 18.2886 31.3546 18.2401 31.4063C18.2401 31.4063 18.2434 31.4086 18.2289 31.412C17.9947 31.6293 17.7751 31.8433 17.5555 32.0572C17.5411 32.0586 17.5298 32.065 17.5061 32.0905C17.4556 32.1426 17.4208 32.1809 17.386 32.2192C17.386 32.2192 17.3894 32.2218 17.3748 32.2249C17.2347 32.3462 17.1078 32.4627 16.9843 32.5824C16.7327 32.8263 16.4831 33.0718 16.2326 33.3166C16.2326 33.3166 16.2367 33.3189 16.2215 33.3211C15.9715 33.5513 15.7365 33.7792 15.5016 34.0071C15.4879 34.0082 15.4774 34.0141 15.4537 34.0385C15.3454 34.1447 15.2534 34.2373 15.1614 34.33C15.1614 34.33 15.167 34.3336 15.1517 34.3347C15.0878 34.388 15.0391 34.4401 14.9904 34.4924C14.9904 34.4924 14.9966 34.4965 14.9809 34.4975C14.915 34.5511 14.8649 34.6036 14.8148 34.6563C14.5214 34.9285 14.2282 35.2006 13.9167 35.4904C13.8751 35.5353 13.8516 35.5627 13.8281 35.5901C13.8164 35.5909 13.8073 35.596 13.7853 35.6186C13.678 35.7271 13.5864 35.8224 13.4946 35.9177C13.4774 35.9208 13.4602 35.9239 13.4228 35.916C13.3385 35.8426 13.2743 35.7801 13.2276 35.7178C13.3748 35.7274 13.4197 35.6656 13.4206 35.547C13.422 35.3403 13.3914 35.1354 13.4142 34.9264C13.441 34.6811 13.4305 34.4323 13.4381 34.1852C13.4416 34.0674 13.4531 33.9498 13.4544 33.8321C13.456 33.7072 13.4508 33.582 13.4464 33.4571C13.4401 33.2789 13.4239 33.1006 13.4267 32.9224C13.43 32.7209 13.4544 32.5196 13.4602 32.318C13.465 32.1491 13.4583 31.9798 13.4529 31.8106C13.4441 31.5369 13.4255 31.2634 13.4243 30.9897C13.4235 30.829 13.4572 30.6682 13.4599 30.5072C13.4658 30.1484 13.457 29.7893 13.4635 29.4305C13.4673 29.2222 13.4905 29.0141 13.5018 28.8059C13.5054 28.7386 13.5019 28.6705 13.4962 28.6033C13.4871 28.4963 13.4633 28.3897 13.4632 28.283C13.4612 25.8382 13.4617 23.3935 13.4616 20.9487C13.4616 20.8811 13.478 20.8074 13.4561 20.7466C13.3453 20.4419 13.48 20.1342 13.4337 19.826C13.4062 19.6425 13.4819 19.4477 13.4226 19.2572C13.4112 19.2204 13.422 19.1766 13.4258 19.1362C13.4369 19.016 13.4609 18.8957 13.46 18.7755C13.4483 17.196 13.4898 15.6164 13.4222 14.037C13.3817 13.0914 13.4675 12.1435 13.3777 11.198C13.3605 11.0172 13.3542 11.0001 13.1665 10.9527C13.1186 10.9406 13.0715 10.9245 13.0229 10.9175C12.9343 10.9047 12.9047 10.8526 12.9261 10.7703C13.5719 10.7653 14.1982 10.765 14.8286 10.7706C14.846 10.7761 14.8591 10.7758 14.8794 10.7773C14.8864 10.7793 14.901 10.7795 14.901 10.7795C14.9119 10.8431 14.9228 10.9067 14.9376 10.9943C14.9491 11.0381 14.9565 11.058 14.9641 11.0779C14.9676 11.1097 14.9712 11.1414 14.9785 11.1974C14.9905 11.2413 14.9986 11.2612 15.0068 11.2811C15.0379 11.4343 15.0691 11.5873 15.1044 11.7654C15.1168 11.8107 15.1251 11.8307 15.1334 11.8507C15.137 11.8824 15.1405 11.9141 15.1482 11.9699C15.1606 12.0138 15.169 12.0337 15.1774 12.0536C15.1956 12.1527 15.2138 12.2516 15.2362 12.3755C15.2484 12.4201 15.2563 12.4399 15.2642 12.4598C15.2656 12.479 15.2672 12.4982 15.2724 12.5405C15.2847 12.5837 15.2931 12.6038 15.3015 12.624C15.3023 12.6425 15.3029 12.6611 15.3067 12.7053C15.3208 12.7632 15.3319 12.7955 15.3429 12.8277C15.3909 13.0747 15.439 13.3219 15.4911 13.5945C15.5032 13.6401 15.5111 13.66 15.5189 13.6799C15.5202 13.699 15.5215 13.7181 15.5264 13.7604C15.5394 13.8036 15.5488 13.8236 15.5582 13.8436C15.576 13.9424 15.5939 14.0411 15.616 14.1647C15.6283 14.2096 15.6365 14.2297 15.6448 14.2498C15.6475 14.2814 15.6502 14.3128 15.6567 14.3687C15.669 14.4132 15.6775 14.4335 15.686 14.4536C15.6868 14.4721 15.6877 14.4908 15.692 14.535C15.7074 14.5923 15.7193 14.6241 15.7311 14.6561C15.7385 14.7064 15.7457 14.7566 15.7582 14.8212C15.7634 14.8356 15.7707 14.8442 15.7707 14.8442C15.7752 14.8797 15.7797 14.9152 15.7888 14.9766C15.8014 15.0225 15.8095 15.0425 15.8175 15.0624C15.8209 15.0942 15.8244 15.1259 15.8319 15.1818C15.8443 15.2258 15.8526 15.2456 15.861 15.2655C15.8626 15.2846 15.8642 15.3038 15.8695 15.346C15.8816 15.3892 15.89 15.4095 15.8983 15.4297C15.9035 15.4741 15.9087 15.5185 15.9182 15.5876C15.931 15.6322 15.9392 15.6519 15.9473 15.6717C15.9673 15.7722 15.9873 15.8727 16.0133 16.0024C16.0373 16.1016 16.0552 16.1715 16.0732 16.2414C16.0947 16.3595 16.116 16.4777 16.1413 16.6108C16.1453 16.6258 16.1549 16.635 16.1549 16.635C16.1589 16.6699 16.1628 16.7049 16.1716 16.7699C16.1985 16.885 16.2202 16.9702 16.242 17.0553C16.2597 17.1541 16.2774 17.2528 16.2996 17.3765C16.3124 17.4214 16.3207 17.4414 16.329 17.4614C16.3322 17.4932 16.3353 17.5249 16.3439 17.5849C16.3712 17.698 16.3934 17.7827 16.4156 17.8675C16.4189 17.8993 16.4222 17.9311 16.4295 17.9871C16.4414 18.0312 16.4493 18.0513 16.457 18.0713C16.4607 18.1029 16.4644 18.1347 16.4721 18.1904C16.4845 18.2344 16.4928 18.2543 16.501 18.2742C16.5046 18.3056 16.508 18.337 16.5164 18.396C16.5414 18.4962 16.5614 18.5689 16.5813 18.6417C16.584 18.6728 16.5866 18.7039 16.5929 18.7615C16.6077 18.8199 16.6188 18.8518 16.6298 18.8838C16.6335 18.9157 16.6371 18.9475 16.645 19.0034C16.657 19.0474 16.6646 19.0674 16.6723 19.0873C16.685 19.1592 16.6977 19.2312 16.7141 19.3307C16.7291 19.3905 16.7405 19.4227 16.7519 19.4548C16.7573 19.4992 16.7626 19.5436 16.7726 19.6128C16.7849 19.6573 16.7926 19.6772 16.8004 19.6971C16.8053 19.7323 16.8101 19.7675 16.8188 19.8219C16.8228 19.8497 16.8273 19.8547 16.8365 19.8557C16.8501 19.9291 16.8636 20.0023 16.8808 20.1047C16.8983 20.1781 16.912 20.2225 16.9256 20.267C16.9432 20.3659 16.9608 20.4647 16.9828 20.5884C16.995 20.6334 17.003 20.6535 17.011 20.6737C17.0142 20.7052 17.0175 20.7366 17.0254 20.7963C17.0523 20.9098 17.0744 20.995 17.0964 21.0802C17.1034 21.1292 17.1103 21.1783 17.1207 21.2453C17.1243 21.2633 17.1362 21.2745 17.1362 21.2745C17.1438 21.3256 17.1513 21.3768 17.1625 21.4474C17.1662 21.4669 17.1787 21.479 17.1787 21.479C17.1896 21.5404 17.2006 21.6018 17.2164 21.6923C17.2373 21.7786 17.2534 21.8357 17.2695 21.8928C17.2728 21.9245 17.2762 21.9563 17.2842 22.0122C17.2968 22.0561 17.3049 22.0759 17.313 22.0958C17.34 22.2351 17.3671 22.3745 17.3977 22.542C17.4125 22.6023 17.4239 22.6345 17.4352 22.6667C17.4402 22.711 17.445 22.7553 17.4545 22.8245C17.467 22.8693 17.4751 22.8892 17.4833 22.9091C17.5104 23.0482 17.5376 23.1874 17.5683 23.3549C17.5835 23.4156 17.5953 23.4478 17.6069 23.4801C17.629 23.5976 17.6512 23.7153 17.6775 23.8481C17.6817 23.8632 17.6918 23.8725 17.6918 23.8725C17.7248 24.0431 17.7579 24.2136 17.7951 24.4097C17.8075 24.455 17.8157 24.475 17.8239 24.4949C17.8278 24.5268 17.8319 24.5585 17.84 24.6142C17.8518 24.6581 17.8595 24.6781 17.8673 24.698C17.8706 24.7297 17.8739 24.7614 17.882 24.8207C17.9073 24.9207 17.928 24.9928 17.9487 25.0651C17.9519 25.0964 17.9552 25.1277 17.962 25.1834C17.9744 25.228 17.9832 25.2482 17.992 25.2683C18.0201 25.4208 18.0481 25.5733 18.0802 25.754C18.0957 25.8143 18.1073 25.8463 18.119 25.8784Z" fill="#006CE2"/>
<path d="M12.9072 10.7752C12.9053 10.8528 12.9349 10.9048 13.0235 10.9177C13.0721 10.9246 13.1192 10.9408 13.1671 10.9528C13.3547 11.0002 13.3611 11.0173 13.3782 11.1982C13.4681 12.1437 13.3823 13.0916 13.4228 14.0372C13.4904 15.6166 13.4489 17.1962 13.4607 18.7757C13.4615 18.8957 13.4375 19.016 13.4264 19.1364C13.4226 19.1767 13.4118 19.2205 13.4233 19.2573C13.4824 19.4479 13.4068 19.6426 13.4343 19.8262C13.4806 20.1344 13.3459 20.442 13.4566 20.7468C13.4787 20.8076 13.4621 20.8812 13.4622 20.9489C13.4623 23.3937 13.4618 25.8384 13.4638 28.2831C13.4639 28.3899 13.4876 28.4965 13.4968 28.6035C13.5025 28.6707 13.506 28.7387 13.5024 28.806C13.4912 29.0143 13.4679 29.2223 13.4641 29.4307C13.4576 29.7895 13.4663 30.1486 13.4606 30.5074C13.4579 30.6683 13.4241 30.829 13.4249 30.9898C13.4261 31.2635 13.4447 31.5371 13.4536 31.8108C13.4589 31.9798 13.4656 32.1492 13.4608 32.3181C13.4551 32.5198 13.4305 32.721 13.4274 32.9226C13.4246 33.1008 13.4407 33.279 13.447 33.4573C13.4514 33.5822 13.4566 33.7073 13.4551 33.8322C13.4538 33.9499 13.4422 34.0676 13.4387 34.1853C13.4311 34.4325 13.4416 34.6813 13.4149 34.9265C13.392 35.1355 13.4226 35.3405 13.4212 35.5472C13.4204 35.6657 13.3754 35.7274 13.2186 35.7099C13.1702 35.6881 13.1489 35.6747 13.1274 35.6612C13.1266 35.65 13.1212 35.6414 13.0975 35.6209C13.0408 35.5719 12.9979 35.5375 12.9551 35.5033C12.8364 35.3881 12.7178 35.273 12.5821 35.1401C12.538 35.1014 12.5109 35.0805 12.4839 35.0596C12.4085 34.9837 12.3332 34.9078 12.2405 34.8139C12.182 34.7621 12.1407 34.7281 12.0995 34.6941C12.098 34.6811 12.0916 34.6709 12.0657 34.6482C11.9535 34.5451 11.8554 34.4575 11.7575 34.3699C11.7378 34.3469 11.7182 34.324 11.6833 34.2849C11.6408 34.2482 11.6138 34.2277 11.5867 34.207C11.5853 34.1939 11.5788 34.1836 11.5534 34.1617C11.5128 34.1263 11.4856 34.1057 11.4586 34.0852C11.4111 34.0358 11.3635 33.9866 11.2994 33.9198C11.2415 33.8688 11.2003 33.8354 11.1592 33.8019C11.0967 33.7391 11.0342 33.6763 10.9539 33.5959C10.8682 33.5174 10.8002 33.4567 10.7323 33.3959C10.3723 33.0482 10.0123 32.7005 9.63478 32.3342C9.5337 32.2413 9.45021 32.167 9.36671 32.0927C9.33185 32.0571 9.29698 32.0215 9.24509 31.9698C9.19471 31.9292 9.16135 31.9046 9.12801 31.88C9.12801 31.88 9.12405 31.8808 9.12075 31.8677C9.08581 31.8276 9.05417 31.8008 9.02254 31.7739C9.02024 31.7597 9.01277 31.7486 8.98532 31.7253C8.93102 31.6769 8.89152 31.6437 8.85202 31.6106C8.79001 31.5464 8.72799 31.4823 8.64833 31.4011C8.5907 31.3509 8.55073 31.3179 8.51075 31.2847C8.50874 31.2706 8.50146 31.2597 8.47417 31.2367C8.41963 31.1883 8.37985 31.1552 8.34006 31.122C8.338 31.108 8.33071 31.097 8.30345 31.074C8.24876 31.0261 8.20881 30.9932 8.16887 30.9605C8.10597 30.8965 8.04307 30.8327 7.96122 30.7499C7.82034 30.6425 7.78935 30.5277 7.82755 30.3893C7.83802 30.3515 7.83403 30.31 7.83667 30.2701C7.84781 30.227 7.85897 30.1839 7.87698 30.1139C7.88788 30.0531 7.89193 30.0193 7.89598 29.9854C7.9014 29.9675 7.90683 29.9497 7.9199 29.9055C7.95598 29.7248 7.9844 29.5705 8.01281 29.4162C8.02188 29.386 8.03096 29.3558 8.04653 29.3015C8.0544 29.2558 8.05578 29.2342 8.05715 29.2127C8.06599 29.1825 8.07481 29.1524 8.0915 29.0947C8.12629 28.926 8.15322 28.7849 8.18016 28.6438C8.18974 28.6134 8.19931 28.5831 8.21484 28.5283C8.22061 28.4828 8.2204 28.4615 8.22021 28.4404C8.23064 28.4101 8.24106 28.3798 8.25884 28.3214C8.28418 28.193 8.30216 28.0928 8.32015 27.9925C8.32595 27.9747 8.33176 27.957 8.3447 27.9151C8.35507 27.8572 8.35829 27.8236 8.36152 27.7898C8.36899 27.7597 8.37646 27.7295 8.39068 27.6757C8.39988 27.63 8.40233 27.6082 8.40478 27.5865C8.41054 27.5684 8.41631 27.5505 8.42947 27.5058C8.47033 27.3116 8.50381 27.1442 8.53729 26.9768C8.54258 26.9589 8.54786 26.941 8.55949 26.9009C8.5679 26.8571 8.56995 26.8354 8.57199 26.8139C8.58033 26.7838 8.58868 26.7538 8.60485 26.696C8.64271 26.5136 8.6727 26.3589 8.70271 26.2041C8.7085 26.1862 8.7143 26.1681 8.72701 26.1257C8.73811 26.0678 8.7423 26.0344 8.7465 26.0008C8.7522 25.9829 8.7579 25.9648 8.77087 25.9197C8.81112 25.712 8.84408 25.5313 8.87703 25.3505C8.8824 25.3325 8.88778 25.3145 8.9012 25.2703C8.95472 25.022 9.00022 24.8 9.04571 24.5779C9.05152 24.5601 9.05733 24.5421 9.0709 24.4975C9.13744 24.1812 9.19622 23.8916 9.25501 23.6021C9.26329 23.572 9.27158 23.5421 9.2878 23.4842C9.31034 23.3978 9.32748 23.3399 9.33912 23.2809C9.40895 22.9273 9.47751 22.5735 9.54649 22.2198C9.55589 22.1895 9.56528 22.1591 9.58237 22.1003C9.62749 21.8771 9.66494 21.6825 9.70238 21.4878C9.70238 21.4878 9.70517 21.4864 9.70948 21.4827C9.71378 21.4791 9.71711 21.4689 9.71711 21.4689L9.70796 21.4627C9.72071 21.4154 9.73347 21.3681 9.75247 21.294C9.76023 21.2458 9.76175 21.2244 9.76326 21.2032C9.77228 21.173 9.78129 21.1429 9.79805 21.0846C9.83258 20.9157 9.85938 20.7751 9.88618 20.6344C9.89764 20.5915 9.90909 20.5486 9.92742 20.4806C9.93687 20.4337 9.93946 20.4119 9.94203 20.3901C9.94941 20.3601 9.95681 20.3301 9.9725 20.2725C10.0245 20.0223 10.0682 19.7997 10.1118 19.5771C10.1194 19.547 10.127 19.517 10.1425 19.459C10.1806 19.2765 10.2108 19.1218 10.2409 18.9672C10.2481 18.9371 10.2553 18.907 10.2693 18.853C10.2786 18.8075 10.2811 18.7856 10.2837 18.7639C10.2892 18.7459 10.2947 18.7279 10.3079 18.6834C10.3456 18.5029 10.3754 18.3487 10.4053 18.1947C10.4138 18.1645 10.4223 18.1342 10.4372 18.0799C10.4452 18.0344 10.4467 18.0128 10.4482 17.9912C10.4572 17.9613 10.4661 17.9312 10.4829 17.8731C10.5208 17.6906 10.5507 17.5361 10.5807 17.3816C10.588 17.3513 10.5952 17.3211 10.6104 17.2627C10.6592 17.0261 10.7003 16.8177 10.7414 16.6092C10.7508 16.579 10.7603 16.5488 10.7757 16.4887C10.8295 16.2244 10.8774 15.9899 10.9254 15.7554C10.9306 15.7374 10.9358 15.7193 10.9472 15.6786C10.9539 15.635 10.9546 15.6138 10.9553 15.5925C10.965 15.5626 10.9747 15.5325 10.9917 15.4743C11.0181 15.3457 11.0373 15.2454 11.0564 15.1451C11.0616 15.1273 11.0668 15.1096 11.0782 15.0694C11.0847 15.0256 11.0851 15.0042 11.0855 14.9827C11.0946 14.9525 11.1038 14.9223 11.1198 14.8659C11.1312 14.8062 11.1356 14.7725 11.1399 14.7388C11.1456 14.7211 11.1512 14.7032 11.1648 14.659C11.2376 14.3385 11.3039 14.0446 11.367 13.7502C11.392 13.6332 11.4098 13.5149 11.4309 13.3971C11.4392 13.367 11.4475 13.3367 11.463 13.2807C11.474 13.221 11.4778 13.1872 11.4815 13.1533C11.487 13.1353 11.4926 13.1175 11.5061 13.0733C11.5457 12.8792 11.5774 12.7114 11.6089 12.5435C11.6142 12.5254 11.6194 12.5072 11.6324 12.4628C11.6838 12.2146 11.7274 11.9927 11.7709 11.7708C11.7797 11.7406 11.7883 11.7103 11.8053 11.6523C11.8631 11.43 11.9125 11.2353 11.9751 11.033C12.1054 10.9206 12.24 10.8648 12.4048 10.8757C12.5101 10.8827 12.6163 10.8756 12.7221 10.877C12.7955 10.878 12.8218 10.84 12.8358 10.7716C12.8689 10.7695 12.888 10.7723 12.9072 10.7752Z" fill="#007AFF"/>
<g filter="url(#filter0_d_49_337)">
<path d="M50.4858 9.456V29H46.5658V20.684H38.1938V29H34.2738V9.456H38.1938V17.492H46.5658V9.456H50.4858ZM56.3321 11.64C55.6414 11.64 55.0628 11.4253 54.5961 10.996C54.1481 10.548 53.9241 9.99733 53.9241 9.344C53.9241 8.69067 54.1481 8.14933 54.5961 7.72C55.0628 7.272 55.6414 7.048 56.3321 7.048C57.0228 7.048 57.5921 7.272 58.0401 7.72C58.5068 8.14933 58.7401 8.69067 58.7401 9.344C58.7401 9.99733 58.5068 10.548 58.0401 10.996C57.5921 11.4253 57.0228 11.64 56.3321 11.64ZM58.2641 13.488V29H54.3441V13.488H58.2641ZM66.0571 15.896C66.5611 15.0747 67.2144 14.4307 68.0171 13.964C68.8384 13.4973 69.7717 13.264 70.8171 13.264V17.38H69.7811C68.5491 17.38 67.6157 17.6693 66.9811 18.248C66.3651 18.8267 66.0571 19.8347 66.0571 21.272V29H62.1371V13.488H66.0571V15.896ZM87.8774 20.908C87.8774 21.468 87.8401 21.972 87.7654 22.42H76.4254C76.5187 23.54 76.9107 24.4173 77.6014 25.052C78.2921 25.6867 79.1414 26.004 80.1494 26.004C81.6054 26.004 82.6414 25.3787 83.2574 24.128H87.4854C87.0374 25.6213 86.1787 26.8533 84.9094 27.824C83.6401 28.776 82.0814 29.252 80.2334 29.252C78.7401 29.252 77.3961 28.9253 76.2014 28.272C75.0254 27.6 74.1014 26.6573 73.4294 25.444C72.7761 24.2307 72.4494 22.8307 72.4494 21.244C72.4494 19.6387 72.7761 18.2293 73.4294 17.016C74.0827 15.8027 74.9974 14.8693 76.1734 14.216C77.3494 13.5627 78.7027 13.236 80.2334 13.236C81.7081 13.236 83.0241 13.5533 84.1814 14.188C85.3574 14.8227 86.2627 15.728 86.8974 16.904C87.5507 18.0613 87.8774 19.396 87.8774 20.908ZM83.8174 19.788C83.7987 18.78 83.4347 17.9773 82.7254 17.38C82.0161 16.764 81.1481 16.456 80.1214 16.456C79.1507 16.456 78.3294 16.7547 77.6574 17.352C77.0041 17.9307 76.6027 18.7427 76.4534 19.788H83.8174Z" fill="#1A1A1A"/>
<path d="M96.9826 29.196C95.6946 29.196 94.556 28.972 93.5666 28.524C92.596 28.076 91.8306 27.4507 91.2706 26.648C90.7106 25.8453 90.412 24.9493 90.3746 23.96H92.4466C92.54 24.912 92.96 25.752 93.7066 26.48C94.4533 27.1893 95.5453 27.544 96.9826 27.544C98.308 27.544 99.3533 27.208 100.119 26.536C100.903 25.8453 101.295 24.9773 101.295 23.932C101.295 23.092 101.08 22.42 100.651 21.916C100.221 21.3933 99.6893 21.0107 99.0546 20.768C98.42 20.5067 97.5426 20.2267 96.4226 19.928C95.116 19.5733 94.08 19.228 93.3146 18.892C92.5493 18.556 91.896 18.0333 91.3546 17.324C90.8133 16.6147 90.5426 15.6533 90.5426 14.44C90.5426 13.432 90.804 12.536 91.3266 11.752C91.8493 10.9493 92.5866 10.324 93.5386 9.876C94.4906 9.428 95.5826 9.204 96.8146 9.204C98.6253 9.204 100.081 9.652 101.183 10.548C102.303 11.4253 102.947 12.564 103.115 13.964H100.987C100.856 13.1613 100.417 12.452 99.6706 11.836C98.924 11.2013 97.916 10.884 96.6466 10.884C95.4706 10.884 94.4906 11.2013 93.7066 11.836C92.9226 12.452 92.5306 13.3013 92.5306 14.384C92.5306 15.2053 92.7453 15.868 93.1746 16.372C93.604 16.876 94.136 17.2587 94.7706 17.52C95.424 17.7813 96.3013 18.0613 97.4026 18.36C98.672 18.7147 99.6986 19.0693 100.483 19.424C101.267 19.76 101.929 20.2827 102.471 20.992C103.012 21.7013 103.283 22.6533 103.283 23.848C103.283 24.7627 103.04 25.6307 102.555 26.452C102.069 27.2733 101.351 27.936 100.399 28.44C99.4466 28.944 98.308 29.196 96.9826 29.196ZM120.902 20.572C120.902 21.244 120.883 21.7573 120.846 22.112H108.162C108.218 23.2693 108.498 24.2587 109.002 25.08C109.506 25.9013 110.169 26.5267 110.99 26.956C111.811 27.3667 112.707 27.572 113.678 27.572C114.947 27.572 116.011 27.264 116.87 26.648C117.747 26.032 118.326 25.2013 118.606 24.156H120.678C120.305 25.6493 119.502 26.872 118.27 27.824C117.057 28.7573 115.526 29.224 113.678 29.224C112.241 29.224 110.953 28.9067 109.814 28.272C108.675 27.6187 107.779 26.704 107.126 25.528C106.491 24.3333 106.174 22.9427 106.174 21.356C106.174 19.7693 106.491 18.3787 107.126 17.184C107.761 15.9893 108.647 15.0747 109.786 14.44C110.925 13.8053 112.222 13.488 113.678 13.488C115.134 13.488 116.403 13.8053 117.486 14.44C118.587 15.0747 119.427 15.9333 120.006 17.016C120.603 18.08 120.902 19.2653 120.902 20.572ZM118.914 20.516C118.933 19.3773 118.699 18.4067 118.214 17.604C117.747 16.8013 117.103 16.1947 116.282 15.784C115.461 15.3733 114.565 15.168 113.594 15.168C112.138 15.168 110.897 15.6347 109.87 16.568C108.843 17.5013 108.274 18.8173 108.162 20.516H118.914ZM131.656 13.432C133.485 13.432 134.979 14.0013 136.136 15.14C137.293 16.26 137.872 17.8933 137.872 20.04V29H135.94V20.264C135.94 18.6027 135.52 17.3333 134.68 16.456C133.859 15.5787 132.729 15.14 131.292 15.14C129.817 15.14 128.641 15.6067 127.764 16.54C126.887 17.4733 126.448 18.8453 126.448 20.656V29H124.488V13.712H126.448V16.316C126.933 15.3827 127.633 14.6733 128.548 14.188C129.463 13.684 130.499 13.432 131.656 13.432ZM147.471 29.224C145.716 29.224 144.279 28.8227 143.159 28.02C142.057 27.1987 141.441 26.088 141.311 24.688H143.327C143.42 25.5467 143.821 26.2467 144.531 26.788C145.259 27.3107 146.229 27.572 147.443 27.572C148.507 27.572 149.337 27.32 149.935 26.816C150.551 26.312 150.859 25.6867 150.859 24.94C150.859 24.4173 150.691 23.988 150.355 23.652C150.019 23.316 149.589 23.0547 149.067 22.868C148.563 22.6627 147.872 22.448 146.995 22.224C145.856 21.9253 144.932 21.6267 144.223 21.328C143.513 21.0293 142.907 20.5907 142.403 20.012C141.917 19.4147 141.675 18.6213 141.675 17.632C141.675 16.8853 141.899 16.1947 142.347 15.56C142.795 14.9253 143.429 14.4213 144.251 14.048C145.072 13.6747 146.005 13.488 147.051 13.488C148.693 13.488 150.019 13.908 151.027 14.748C152.035 15.5693 152.576 16.708 152.651 18.164H150.691C150.635 17.268 150.28 16.5493 149.627 16.008C148.992 15.448 148.115 15.168 146.995 15.168C146.005 15.168 145.203 15.4013 144.587 15.868C143.971 16.3347 143.663 16.9133 143.663 17.604C143.663 18.2013 143.84 18.696 144.195 19.088C144.568 19.4613 145.025 19.76 145.567 19.984C146.108 20.1893 146.836 20.4227 147.751 20.684C148.852 20.9827 149.729 21.272 150.383 21.552C151.036 21.832 151.596 22.2427 152.063 22.784C152.529 23.3253 152.772 24.044 152.791 24.94C152.791 25.7613 152.567 26.4987 152.119 27.152C151.671 27.7867 151.045 28.2907 150.243 28.664C149.44 29.0373 148.516 29.224 147.471 29.224ZM170.312 20.572C170.312 21.244 170.294 21.7573 170.256 22.112H157.572C157.628 23.2693 157.908 24.2587 158.412 25.08C158.916 25.9013 159.579 26.5267 160.4 26.956C161.222 27.3667 162.118 27.572 163.088 27.572C164.358 27.572 165.422 27.264 166.28 26.648C167.158 26.032 167.736 25.2013 168.016 24.156H170.088C169.715 25.6493 168.912 26.872 167.68 27.824C166.467 28.7573 164.936 29.224 163.088 29.224C161.651 29.224 160.363 28.9067 159.224 28.272C158.086 27.6187 157.19 26.704 156.536 25.528C155.902 24.3333 155.584 22.9427 155.584 21.356C155.584 19.7693 155.902 18.3787 156.536 17.184C157.171 15.9893 158.058 15.0747 159.196 14.44C160.335 13.8053 161.632 13.488 163.088 13.488C164.544 13.488 165.814 13.8053 166.896 14.44C167.998 15.0747 168.838 15.9333 169.416 17.016C170.014 18.08 170.312 19.2653 170.312 20.572ZM168.324 20.516C168.343 19.3773 168.11 18.4067 167.624 17.604C167.158 16.8013 166.514 16.1947 165.692 15.784C164.871 15.3733 163.975 15.168 163.004 15.168C161.548 15.168 160.307 15.6347 159.28 16.568C158.254 17.5013 157.684 18.8173 157.572 20.516H168.324Z" fill="#333333"/>
</g>
</g>
<defs>
<filter id="filter0_d_49_337" x="30.2739" y="7.04797" width="144.038" height="30.204" filterUnits="userSpaceOnUse" color-interpolation-filters="sRGB">
<feFlood flood-opacity="0" result="BackgroundImageFix"/>
<feColorMatrix in="SourceAlpha" type="matrix" values="0 0 0 0 0 0 0 0 0 0 0 0 0 0 0 0 0 0 127 0" result="hardAlpha"/>
<feOffset dy="4"/>
<feGaussianBlur stdDeviation="2"/>
<feComposite in2="hardAlpha" operator="out"/>
<feColorMatrix type="matrix" values="0 0 0 0 0 0 0 0 0 0 0 0 0 0 0 0 0 0 0.25 0"/>
<feBlend mode="normal" in2="BackgroundImageFix" result="effect1_dropShadow_49_337"/>
<feBlend mode="normal" in="SourceGraphic" in2="effect1_dropShadow_49_337" result="shape"/>
</filter>
<clipPath id="clip0_49_337">
<rect width="194" height="39" fill="white"/>
</clipPath>
</defs>
</svg>
